<?xml version="1.0" encoding="UTF-8" standalone="no"?>
<!-- Uploaded to: SVG Repo, www.svgrepo.com, Generator: SVG Repo Mixer Tools -->

<svg
   fill="#000000"
   width="800px"
   height="800px"
   viewBox="0 0 24 24"
   role="img"
   version="1.1"
   id="svg358"
   sodipodi:docname="sourceforge.svg"
   inkscape:version="1.2.2 (b0a8486541, 2022-12-01)"
   xmlns:inkscape="http://www.inkscape.org/namespaces/inkscape"
   xmlns:sodipodi="http://sodipodi.sourceforge.net/DTD/sodipodi-0.dtd"
   xmlns="http://www.w3.org/2000/svg"
   xmlns:svg="http://www.w3.org/2000/svg">
  <defs
     id="defs362" />
  <sodipodi:namedview
     id="namedview360"
     pagecolor="#ffffff"
     bordercolor="#666666"
     borderopacity="1.0"
     inkscape:showpageshadow="2"
     inkscape:pageopacity="0.0"
     inkscape:pagecheckerboard="0"
     inkscape:deskcolor="#d1d1d1"
     showgrid="false"
     inkscape:zoom="0.65053824"
     inkscape:cx="124.51228"
     inkscape:cy="407.35499"
     inkscape:window-width="3072"
     inkscape:window-height="1655"
     inkscape:window-x="0"
     inkscape:window-y="0"
     inkscape:window-maximized="1"
     inkscape:current-layer="svg358" />
  <title
     id="title354">SourceForge icon</title>
  <path
     d="M9.998 1.4648c-.088 0-.1761.0395-.2402.1036L.1016 11.2148c-.1361.1281-.1361.3444 0 .4805l9.1523 9.1348c.064.072.1522.1054.2402.1054.0881 0 .1743-.0414.2383-.1054l1.3692-1.3848c.136-.128.136-.3444 0-.4805l-7.172-7.1738a.4682.4682 0 010-.664l9.0782-9.0782c.1201-.12.1123-.2728.0723-.377-.04-.096-.1444-.207-.3125-.207H9.998zm4.5313 1.5918c-.088 0-.1762.0415-.2402.1055l-1.3926 1.3926c-.1361.128-.1361.3444 0 .4805l7.1719 7.1816c.088.088.1367.208.1367.3281 0 .1201-.0487.24-.1367.3281l-9.0782 9.0782c-.12.12-.1123.2728-.0722.377.04.096.1443.207.3125.207v-.0079H14c.088 0 .1762-.0316.2402-.0957l9.6563-9.6543c.072-.064.1035-.1521.1035-.2402 0-.088-.0395-.1762-.1035-.2402l-9.127-9.1348c-.064-.072-.1521-.1055-.2402-.1055zM11.4336 6.213c-.1125.005-.2164.1007-.211.2383.1442 2.2176-2.6425 2.7635-2.6425 6.246v.0235c0 2.1216 1.6026 3.8418 3.58 3.8418 1.9775 0 3.5782-1.7202 3.5782-3.8418v-.0234c0-.9848-.3679-1.9225-.7442-2.627-.072-.136-.2896-.087-.2656.041.6725 2.9943-1.0156 4.8507-1.0156 2.545 0-3.931-1.3943-5.7162-2.1309-6.3887a.2072.2072 0 00-.1484-.0547Z"
     id="path356"
     style="stroke:#030000;stroke-opacity:0;fill:#ffffff;fill-opacity:1;stroke-width:0.99994961;stroke-dasharray:none" />
</svg>
